<svg xmlns="http://www.w3.org/2000/svg" xmlns:svg="http://www.w3.org/2000/svg" id="Layer_1" width="1729.2" height="2011.55" data-name="Layer 1" version="1.1" viewBox="0 0 1729.2 2011.55"><metadata id="metadata31"/><defs id="defs4"><style id="style2">.cls-2{fill:#fbc02d}.cls-3{fill:#ff8209}.cls-4{fill:#3965b0}</style></defs><title id="title6">Artboard 96 copy</title><polygon id="polygon16" points="1190.07 1952.49 478.96 1534 478.96 1333.79 1179.8 1739.14 1190.07 1745.09 1200.34 1738.93 1679.2 1456.99 1679.2 1664.19" class="cls-2" transform="translate(0,5.77)" style="fill:#fbc02d"/><polygon id="polygon18" points="416.33 1752.08 259.66 1659.05 259.66 845.68 437.89 741.78 437.89 1557.41 447.95 1563.36 1114.5 1955.78 765.62 1955.78" class="cls-3" transform="translate(0,5.77)" style="fill:#ff8209"/><polygon id="polygon20" points="982.88 131.91 835.03 44.23 1179.6 44.23 1678.99 337.46 1678.99 542.39" class="cls-4" transform="translate(0,5.77)" style="fill:#3965b0"/><polygon id="polygon22" points="1015.94 1596.63 1491.52 1321.88 1659.28 1420.85 1189.87 1697.45" class="cls-4" transform="translate(0,5.77)" style="fill:#3965b0"/><polygon id="polygon24" points="219.2 822.07 219.2 1636.46 50 1536.05 50 728.23 762.54 300.7 934.62 403.17 229.47 816.12" class="cls-2" transform="translate(0,5.77)" style="fill:#fbc02d"/><polygon id="polygon26" points="770.35 260.04 759.87 254.09 749.4 260.25 50 679.56 50 473.81 760.08 47.31 1659.28 578.33 1491.52 677.71" class="cls-3" transform="translate(0,5.77)" style="fill:#ff8209"/></svg>